<?xml version="1.0" standalone="no"?>
<!DOCTYPE svg PUBLIC "-//W3C//DTD SVG 20010904//EN"
 "http://www.w3.org/TR/2001/REC-SVG-20010904/DTD/svg10.dtd">
<svg version="1.0" xmlns="http://www.w3.org/2000/svg"
 width="128.000000pt" height="128.000000pt" viewBox="0 0 128.000000 128.000000"
 preserveAspectRatio="xMidYMid meet">
<metadata>
Created by potrace 1.14, written by Peter Selinger 2001-2017
</metadata>
<g transform="translate(0.000000,128.000000) scale(0.100000,-0.100000)"
fill="#000000" stroke="none">
<path d="M1098 1260 c-361 -74 -689 -381 -945 -885 -44 -87 -127 -285 -148
-353 -6 -22 -5 -23 36 -20 l43 3 119 198 118 197 133 0 c122 0 136 2 182 25
66 34 124 107 236 295 188 316 241 394 342 498 l61 63 -47 -2 c-26 -2 -84 -10
-130 -19z"/>
</g>
</svg>
