<?xml version="1.0" standalone="no"?>
<!DOCTYPE svg PUBLIC "-//W3C//DTD SVG 20010904//EN"
 "http://www.w3.org/TR/2001/REC-SVG-20010904/DTD/svg10.dtd">
<svg version="1.0" xmlns="http://www.w3.org/2000/svg"
 width="258.000000pt" height="260.000000pt" viewBox="0 0 258.000000 260.000000"
 preserveAspectRatio="xMidYMid meet">

<g transform="translate(0.000000,260.000000) scale(0.100000,-0.100000)"
fill="#000000" stroke="none">
<path d="M1220 2590 c-14 -4 -64 -13 -112 -19 -121 -16 -245 -53 -365 -111
-140 -67 -240 -138 -353 -250 -391 -390 -490 -995 -242 -1486 138 -273 394
-510 666 -615 198 -76 410 -109 582 -90 432 49 775 267 994 630 133 223 201
522 173 770 -30 259 -109 462 -260 663 -198 262 -505 445 -824 488 -46 6 -100
16 -120 21 -43 11 -104 11 -139 -1z m619 -698 c-86 -90 -162 -199 -283 -406
-141 -240 -203 -324 -274 -368 -33 -20 -54 -24 -181 -28 l-145 -5 -119 -197
-118 -198 -39 0 -39 0 24 69 c36 106 112 276 172 386 269 488 591 762 958 814
128 18 127 21 44 -67z"/>
</g>
</svg>
